<?xml version="1.0" encoding="UTF-8" standalone="no"?>
<!-- Created with Inkscape (http://www.inkscape.org/) -->

<svg
   version="1.1"
   id="svg2"
   width="453.53079"
   height="404.38406"
   viewBox="0 0 453.53079 404.38406"
   sodipodi:docname="Logo.svg"
   inkscape:version="1.2.2 (732a01da63, 2022-12-09)"
   xmlns:inkscape="http://www.inkscape.org/namespaces/inkscape"
   xmlns:sodipodi="http://sodipodi.sourceforge.net/DTD/sodipodi-0.dtd"
   xmlns="http://www.w3.org/2000/svg"
   xmlns:svg="http://www.w3.org/2000/svg">
  <defs
     id="defs6">
    <linearGradient
       id="linearGradient3388"
       inkscape:swatch="solid">
      <stop
         style="stop-color:#b5b5b5;stop-opacity:0;"
         offset="0"
         id="stop3386" />
    </linearGradient>
  </defs>
  <sodipodi:namedview
     id="namedview4"
     pagecolor="#000840"
     bordercolor="#999999"
     borderopacity="1"
     inkscape:showpageshadow="0"
     inkscape:pageopacity="0"
     inkscape:pagecheckerboard="0"
     inkscape:deskcolor="#d1d1d1"
     showgrid="false"
     inkscape:zoom="1.4142136"
     inkscape:cx="119.50105"
     inkscape:cy="202.93965"
     inkscape:window-width="1920"
     inkscape:window-height="1009"
     inkscape:window-x="-8"
     inkscape:window-y="-8"
     inkscape:window-maximized="1"
     inkscape:current-layer="g8" />
  <g
     inkscape:groupmode="layer"
     inkscape:label="Image"
     id="g8"
     transform="translate(-393.243,-71.615961)">
    <path
       style="fill:#000d39;fill-opacity:1;fill-rule:evenodd;stroke:#000000;stroke-width:1.978;stroke-linecap:round;stroke-linejoin:round;stroke-dashoffset:143.073;paint-order:stroke fill markers;stop-color:#000000"
       d="m 465.743,407.61596 -5.5,-9.5 4,-6 -32.5,-16.5 -23,-43.5 9.5,-16 60,-19 21,-10.5 -3,-11 28.5,-57.5 12.5,-18.5 11.5,-7 10.5,-33.5 66.5,-68.500002 3,-1 -14.5,50.000002 10,-0.5 -1,17 15,-4.5 28.5,7.5 82.5,-80.000002 0.5,8.5 -15.5,80.000002 37,-20 3,3.5 -20.5,37.5 34.5,13 56.5,59 -19.5,22 14.5,19.5 0.5,111.5 -3.5,1 -22.5,-6 -39,64 -44.5,-13 -24.5,20.5 h -128.5 l 23,-19 -4,-6.5 -23,-20.5 -51,16.5 -16.5,-6.5 z"
       id="path414" />
    <path
       id="path904"
       style="fill:#0086ff;fill-opacity:1"
       d="m 755.32812,71.660156 c -0.53043,-0.530439 -5.44724,3.681831 -16.78124,14.376953 -4.976,4.695511 -12.64072,11.895518 -17.03321,16.000001 -4.39249,4.10448 -11.5925,10.86354 -16,15.01953 -4.4075,4.15599 -12.51368,11.78089 -18.01367,16.94531 -5.49999,5.16444 -12.98782,12.2263 -16.63867,15.69336 -3.65085,3.46707 -7.15653,6.30469 -7.79102,6.30469 -0.6345,0 -5.67861,-1.575 -11.20898,-3.5 -5.53038,-1.925 -10.92191,-3.5 -11.98242,-3.5 -1.06051,0 -4.48398,0.89828 -7.60743,1.99609 -3.12345,1.09781 -6.03591,1.63987 -6.4707,1.20508 -0.43479,-0.43479 0.35699,-4.29889 1.75781,-8.58789 1.40083,-4.28898 2.41048,-8.16999 2.24414,-8.625 -0.16634,-0.45502 -2.94922,0.29104 -6.18359,1.66016 -3.65149,1.54551 -6.23534,2.13575 -6.81641,1.55468 -0.58107,-0.58106 1.75326,-9.04263 6.15625,-22.32031 C 635.07649,79.341276 634.88869,80 633.14062,80 c -2.42034,0 -25.40722,22.72799 -46.04687,45.52734 -2.97384,3.28502 -10.84347,11.71955 -17.48828,18.74414 -10.46826,11.06658 -12.32285,13.53684 -13.88086,18.5 -0.98896,3.1504 -2.22609,6.62852 -2.75,7.72852 -0.5239,1.1 -2.2205,5.80845 -3.76953,10.46289 -2.6857,8.06982 -3.04429,8.59644 -7.74024,11.35547 -5.51002,3.23734 -5.66581,3.4245 -13.8125,16.67187 -12.83304,20.8679 -19.79229,33.99096 -28.60351,53.94141 -5.15949,11.68218 -5.96169,15.97111 -3.85547,20.59375 1.48068,3.24974 2.12214,2.83293 -14.57227,9.4668 -16.38244,6.5099 -15.08961,6.04199 -27.62109,9.98242 -5.77499,1.8159 -11.625,3.6864 -13,4.15625 -1.375,0.46985 -6.77501,1.96079 -12,3.31445 -5.22499,1.35366 -10.52576,2.76389 -11.7793,3.13281 C 413.60915,314.34673 406,326.39668 406,329.76367 c 0,1.18081 1.31363,4.97921 2.91992,8.44141 1.60629,3.46218 4.77661,10.34492 7.04492,15.29492 5.85096,12.76808 11.69655,22.07551 15.90821,25.33008 5.46511,4.22318 12.40444,7.98438 16.74609,9.07812 2.13433,0.53767 5.60487,1.41413 7.71094,1.94727 5.11563,1.29499 5.29786,1.60589 3.34961,5.69141 -3.2329,6.77946 -2.71305,7.81155 10.57031,20.98242 6.73749,6.68043 13.86543,13.23196 15.83984,14.55859 1.97443,1.32663 7.37444,5.25835 12,8.73633 4.62558,3.47798 11.22483,7.90507 14.66407,9.83789 l 6.25195,3.51367 8.24805,-2.5293 c 4.53575,-1.39145 11.84609,-3.51333 16.24609,-4.71484 4.4,-1.2015 12.2315,-3.70326 17.40234,-5.55859 C 566.07319,438.51771 571.38251,437 572.70117,437 c 1.68005,0 5.7488,3.19254 13.59766,10.66602 6.16048,5.86584 11.32627,10.96423 11.47851,11.33007 0.15223,0.36585 -1.87277,2.88145 -4.5,5.5918 -2.62723,2.71035 -5.8678,6.16197 -7.20117,7.66992 L 583.65234,475 h 2.44532 c 1.73735,0 4.86313,-2.42792 10.7832,-8.37891 l 8.33594,-8.38086 -4.83399,-4.36914 c -4.53474,-4.09962 -18.327,-16.8514 -21.16406,-19.5664 -3.10277,-2.96929 -7.7721,-2.58344 -19.76758,1.6289 -6.45424,2.26648 -13.35957,4.52009 -15.34375,5.00977 -1.98418,0.48967 -8.30914,2.27297 -14.05664,3.96094 l -10.45117,3.06836 -6.47266,-4.0586 C 500.58325,436.04918 484.38189,423.00634 473.75,412.21289 467.83751,406.21056 463,400.84318 463,400.28516 c 0,-0.55802 0.9,-2.16018 2,-3.5586 4.41075,-5.60735 1.41817,-9.84145 -8.5,-12.02734 -16.89177,-3.72283 -23.92159,-9.72771 -32.9043,-28.10547 C 415.35123,339.72638 412,332.07389 412,330.11328 c 0,-0.93556 1.4625,-4.13228 3.25,-7.10351 3.09755,-5.14885 3.55491,-5.48288 9.75,-7.11133 15.8417,-4.16416 22.42508,-6.11369 36.5,-10.8086 8.24999,-2.7519 20.62501,-7.40885 27.5,-10.34961 13.73006,-5.87297 13.9485,-6.14248 10.91602,-13.46484 -1.61603,-3.90211 -1.23408,-5.15762 7.20898,-23.64062 6.38489,-13.9774 17.83635,-35.0183 26.60938,-48.89454 4.5305,-7.16587 6.56088,-9.38591 11.15234,-12.18945 L 550.5,193.12305 556,176.8125 561.5,160.5 l 9,-9.48828 c 4.95,-5.2186 11.74183,-12.4186 15.0918,-16 3.34996,-3.5814 10.6184,-11.23673 16.15234,-17.01172 5.53396,-5.77499 13.2786,-13.875 17.21094,-18 7.02354,-7.367645 7.13744,-7.438235 6.46289,-4 -0.37767,1.924998 -3.57951,12.05001 -7.11524,22.5 -3.53572,10.44999 -7.14557,21.14308 -8.02148,23.76172 -0.87592,2.61863 -1.30768,5.04389 -0.96094,5.39062 0.34674,0.34674 3.40232,-0.57137 6.79102,-2.04101 3.38869,-1.46964 6.41593,-2.41805 6.72656,-2.10742 0.31064,0.31063 -0.64025,4.2354 -2.11133,8.72265 -1.47107,4.48726 -2.47924,8.35279 -2.24218,8.58985 0.23706,0.23707 5.22392,-1.27616 11.08203,-3.36329 l 10.65039,-3.79492 8.64258,2.91992 c 4.75285,1.60544 10.36214,3.46312 12.46679,4.12891 l 3.82617,1.21094 8.66407,-8.20899 c 12.65404,-11.99042 35.79031,-33.70083 47.16992,-44.26171 4.11757,-3.82133 10.93264,-10.246737 15.14453,-14.279301 4.21189,-4.032565 8.60564,-7.995524 9.76367,-8.806641 3.24183,-2.270662 4.65691,-10.131629 -11.8457,65.820312 -2.2326,10.27535 -4.33127,19.38786 -4.66211,20.25 -0.33083,0.86213 -0.0878,1.56836 0.53906,1.56836 0.62687,0 9.01478,-4.51706 18.63867,-10.03711 C 764.99526,154.53855 771,151.4653 771,152.48047 c 0,0.71266 -10.63203,18.2453 -18.65234,30.75781 -2.45842,3.83538 -4.32931,7.092 -4.15821,7.23828 0.35692,0.30513 6.86582,2.60147 25.31055,8.92774 l 13,4.45898 26.35938,26.81836 c 14.49761,14.75011 27.07398,27.88694 27.94726,29.19336 1.53301,2.29336 1.45156,2.49747 -2.35937,5.91211 -12.07919,10.82304 -17.62582,16.69376 -16.8125,17.79492 0.47597,0.64442 3.84742,4.60551 7.49218,8.80274 6.09881,7.02324 6.67595,8.08884 7.25,13.37304 1.11424,10.25675 1.82308,104.64382 0.79688,106.12696 -0.74167,1.0719 -1.60537,1.14949 -3.81641,0.34375 -18.90177,-6.88824 -19.79331,-7.14557 -20.58984,-5.95313 -1.12345,1.68185 -17.07454,28.40289 -19.53516,32.72461 -10.9519,19.23538 -17.28169,29.62739 -18.51953,30.4082 -1.53695,0.96948 -8.05428,-0.92885 -31.91992,-9.30078 C 736.3538,457.84859 730.71748,456 730.26953,456 c -0.44795,0 -5.16516,4.27501 -10.48437,9.5 -8.96432,8.80555 -9.46604,9.5 -6.84961,9.5 1.88063,0 4.16392,-1.2516 6.84179,-3.75 11.77865,-10.98923 12.74751,-11.5235 16.98633,-9.36719 7.41168,3.77035 34.9602,13.11719 38.66211,13.11719 1.74438,0 3.13329,-1.24628 5.28906,-4.75 C 786.78033,460.39193 790,454.84671 790,454.26172 c 0,-0.33265 0.60772,-1.31529 1.35156,-2.1836 0.74384,-0.8683 3.16123,-4.95312 5.3711,-9.07812 3.27671,-6.11639 17.66368,-30.36444 18.9375,-31.91797 0.3824,-0.46637 3.74048,0.56665 13.33984,4.10156 8.13299,2.99494 12.03223,2.53184 13.125,-1.55664 1.81041,-6.77345 0.0174,-109.49016 -2.00391,-114.80664 -0.53036,-1.39496 -3.47465,-5.24834 -6.54297,-8.5625 C 830.50981,286.94367 828,283.68984 828,283.02734 c 0,-0.6625 4.3334,-5.3314 9.63086,-10.37695 9.02518,-8.596 9.59096,-9.36789 8.96094,-12.23633 -0.49262,-2.24291 -8.34793,-10.84152 -29.38282,-32.16797 L 788.5,199.13867 773.74609,194.42773 c -19.36686,-6.18493 -18.97753,-5.86891 -15.45703,-12.59765 1.53399,-2.93192 4.64343,-8.25508 6.90821,-11.83008 9.8282,-15.51401 13.62492,-21.70447 15.1875,-24.75195 l 1.66796,-3.25 -6.45703,2.42968 c -6.80779,2.56245 -9.90854,4.184 -26.1875,13.6836 -5.55098,3.23928 -10.61349,5.88867 -11.25,5.88867 -2.05954,0 -1.90239,-1.968 1.32813,-16.5 3.32251,-14.94589 14.13148,-64.879095 15.30664,-70.712891 0.52216,-2.591899 0.76281,-4.899295 0.53515,-5.126953 z m -14.51953,25.873047 c -0.34483,-0.276397 -1.61425,0.903388 -4.93164,4.023437 -2.95754,2.78162 -8.7396,8.18162 -12.84961,12 -9.01805,8.37818 -20.68205,19.29525 -31.51172,29.49219 -15.75404,14.83359 -23.11595,21.71575 -29.99414,28.03711 -3.83861,3.52785 -9.75908,9.11406 -13.15625,12.41406 l -6.17773,6 -3.60156,16.48047 c -2.52316,11.54318 -4.19091,17.06981 -5.56641,18.44531 -3.82379,3.82381 -3.72816,2.84608 2.31836,-23.69336 1.85053,-8.1223 3.54431,-14.88507 3.76367,-15.02734 1.78596,-1.15831 19.89322,-18.04233 19.63086,-18.30469 -0.18653,-0.18652 -4.81427,-1.94031 -10.28515,-3.89648 l -9.94727,-3.55664 -6,2.18554 c -22.55295,8.21172 -49.04358,19.79295 -66.33594,29.00196 -25.39406,13.52353 -22.01298,10.71685 -31.13867,25.83984 -10.63214,17.61943 -27.01,50.49897 -27.69336,55.59375 -0.47702,3.55645 -0.0838,4.56538 3.58985,9.21289 3.53996,4.4784 4.61148,5.21875 7.55859,5.21875 3.0456,0 3.74635,-0.53797 6.17969,-4.75 1.50927,-2.6125 2.99197,-4.975 3.29492,-5.25 0.30295,-0.275 1.89842,-2.48773 3.54687,-4.91602 C 535.54947,266.1217 542.58236,259 544.42188,259 c 0.97859,0 -0.20631,2.25164 -3.42188,6.5 -6.09849,8.05722 -7.80762,13.04466 -5.86133,17.10547 2.39433,4.99559 4.3544,4.25551 14.20508,-5.35547 5.1841,-5.05795 12.19264,-10.69379 16.15625,-12.99414 3.85,-2.23441 8.75747,-5.46437 10.90625,-7.17578 8.13025,-6.47539 10.23958,-7.35498 15.92578,-6.64453 5.72329,0.71508 4.77832,1.20605 18.13867,-9.41407 3.11042,-2.47245 6.77592,-4.33802 9.79883,-4.98632 2.65654,-0.56972 6.10648,-1.69549 7.66602,-2.50196 6.18241,-3.19705 16.40717,-17.85819 19.65429,-28.18164 0.92565,-2.94288 1.98289,-5.35156 2.34766,-5.35156 1.04058,0 -0.71716,15.439 -2.41992,21.25586 -3.21241,10.97405 -11.41132,21.62156 -20.02344,26.00391 -3.09839,1.57663 -10.28023,7.7283 -18.92187,16.20703 -7.66061,7.5162 -15.2069,14.32576 -16.76758,15.13281 -1.56067,0.80706 -7.86307,2.60358 -14.00586,3.99023 -6.14279,1.38665 -11.54261,2.75248 -12,3.03516 -1.71506,1.05997 0.44813,2.37826 4.00976,2.44336 l 3.69141,0.0664 -4.5,1.29296 c -2.475,0.71102 -7.95715,2.92979 -12.18359,4.93165 -6.87009,3.254 -8.5437,3.64062 -15.78321,3.64062 -8.77704,0 -12.76532,-1.20619 -17.67187,-5.34375 -2.32849,-1.96356 -4.39317,-2.69912 -8,-2.84961 -4.2231,-0.1762 -6.76546,0.73825 -19.36133,6.96094 -17.31399,8.55356 -29.77539,12.98633 -52.30469,18.60351 -9.2424,2.30439 -16.89241,4.57122 -17,5.03907 -0.10758,0.46786 3.74219,2.8391 8.55469,5.26953 5.10861,2.57997 8.75,5.04011 8.75,5.91015 0,2.00994 -3.47624,8.71634 -7.98828,15.41016 -6.58869,9.77461 -6.53339,9.51196 -3.13086,14.80859 7.1162,11.07764 17.09552,17.12285 30.11914,18.24414 19.57171,1.68507 31.29076,0.54656 39.31055,-3.81835 2.67908,-1.45814 11.12761,-8.62092 18.77343,-15.91797 7.64582,-7.29707 15.66156,-14.16635 17.8125,-15.26368 12.89467,-6.57836 32.27022,-2.98629 44.75,8.29493 2.83081,2.55893 5.53081,4.64401 6,4.63281 0.46919,-0.0112 4.90352,-1.55268 9.85352,-3.42578 l 9,-3.40625 0.67188,-5.92188 C 610.86788,330.29722 619.24981,322 632.63281,322 c 6.85552,0 10.00533,1.62052 15.61328,8.03125 l 4.44727,5.08398 5.96094,-6.80859 c 3.27859,-3.74394 9.97632,-11.75665 14.88476,-17.80664 4.90844,-6.04999 12.45893,-15.16157 16.7793,-20.24805 l 7.85547,-9.24804 -3.63477,-6.50196 C 692.53924,270.92594 690.43592,268 689.86523,268 c -0.5707,0 -4.26129,2.19908 -8.20117,4.88672 l -7.16406,4.88672 -16,-2.33203 c -8.79999,-1.28205 -16.67811,-2.35612 -17.50781,-2.38672 C 639.59712,273.00325 627,253.97056 627,251.91406 627,251.41107 627.79705,251 628.77148,251 c 1.15667,0 3.67348,3.1136 7.25,8.96875 3.01306,4.93267 6.15352,8.97748 6.97852,8.98828 0.9072,0.0119 3.15823,-3.43395 5.69531,-8.71875 13.81531,-28.77759 18.30288,-38.61176 18.29688,-40.08398 -0.004,-0.91019 -1.46626,-2.67867 -3.25,-3.93164 -1.78374,-1.25298 -4.8131,-3.62631 -6.73242,-5.27344 l -3.48829,-2.99414 2.98829,-2.73828 c 1.64432,-1.50568 7.69279,-6.98687 13.4414,-12.17969 5.74862,-5.19283 11.18358,-10.1369 12.07617,-10.98828 0.89258,-0.85138 5.61475,-5.14883 10.49414,-9.54883 4.87939,-4.4 11.97084,-10.81497 15.75977,-14.25586 6.85299,-6.22351 9.39557,-7.18633 7.81445,-2.95898 -0.45557,1.21803 -3.62359,11.21485 -7.03906,22.21484 -3.41548,10.99999 -6.59081,20.9 -7.05664,22 -0.46584,1.1 -2.21349,6.20208 -3.88281,11.33789 l -3.03516,9.33789 2.70899,-1.76367 c 1.4897,-0.9695 3.15898,-2.29443 3.70898,-2.94531 2.44669,-2.89547 17.58895,-14.60316 18.49609,-14.30078 0.98331,0.32777 -6.745,14.31295 -14.55273,26.33398 -2.14337,3.3 -4.58214,7.13218 -5.41992,8.51562 -0.83777,1.38345 -2.87344,4.69128 -4.52344,7.35157 -1.65,2.66027 -5.12047,8.27812 -7.71094,12.48437 -2.59047,4.20626 -5.08385,8.09844 -5.54297,8.64844 -0.45912,0.55 -1.22242,1.63182 -1.69531,2.4043 -1.05682,1.72638 -0.66761,1.50447 9.94922,-5.69727 11.0007,-7.46214 13.75832,-9.9927 16.57227,-15.20703 1.33564,-2.475 2.71419,-4.725 3.06445,-5 0.35026,-0.275 4.87883,-7.47501 10.0625,-16 8.60496,-14.15159 12.99178,-21.14899 19.47461,-31.05469 C 740.953,191.99075 742,190.09419 742,189.72852 c 0,-0.36567 1.88033,-3.4925 4.17969,-6.94727 2.29936,-3.45476 5.67436,-8.53431 7.5,-11.28906 3.42344,-5.16576 4.27548,-7.53123 2.04687,-5.68164 -0.70007,0.581 -3.73757,2.37262 -6.75,3.98047 -3.01242,1.60784 -9.91243,5.50377 -15.33398,8.6582 -5.42156,3.15443 -10.23725,5.3565 -10.70117,4.89258 -0.46387,-0.46391 -0.41937,-2.64228 0.0976,-4.8418 1.26949,-5.40066 10.98892,-48.11129 11.94727,-52.5 3.19324,-14.6234 5.19334,-23.94549 5.6875,-26.5 0.21481,-1.11045 0.34166,-1.800959 0.13476,-1.966797 z M 744.20508,197 c -0.59253,0 -1.03287,0.97576 -1.13086,2.17773 l 29.02734,49.32032 c 0.21623,0.38714 0.14838,0.87088 -0.16601,1.18359 -0.0356,0.0638 -0.11416,0.0988 -0.20117,0.12695 -0.24483,0.16026 -0.54805,0.20388 -0.82813,0.11914 l -24.66016,-9.12109 31.59375,50.66992 c 0.10513,0.16894 0.15686,0.36566 0.14844,0.56446 l -2.03906,49.36914 0.0508,4.38086 19.75,12.98632 c 10.86249,7.14295 20.24036,13.82847 20.83984,14.85547 1.90577,3.26486 6.51639,11.60162 11.15235,20.16602 2.47084,4.56459 4.66852,8.12445 4.88281,7.91015 0.21429,-0.21429 -0.12399,-23.07353 -0.75195,-50.79882 l -1.1426,-50.41016 -7.11524,-7.51758 c -3.91339,-4.13416 -8.97975,-9.75917 -11.25976,-12.5 -5.4316,-6.52935 -6.24638,-7.44135 -17.01758,-19.08203 -10.03643,-10.84662 -21.95492,-24.89669 -23.45508,-27.65039 -1.58478,-2.90902 0.79885,-2.15657 14.62305,4.61523 19.92382,9.75972 42.60059,19.86036 43.21289,19.24805 0.59778,-0.59777 -6.02157,-7.70825 -29.42969,-31.61523 l -15.20898,-15.53516 -19.83594,-6.73047 C 754.33462,200.03004 744.8674,197 744.20508,197 Z m -2.09766,4.56641 c -0.49054,-0.30317 -8.69388,11.98954 -18.23047,27.3164 -16.53082,26.56776 -17.60755,28.04048 -23.10742,31.60157 -3.17286,2.05437 -5.76953,4.18867 -5.76953,4.74218 0,0.55352 5.91585,11.4172 13.14648,24.14063 7.23064,12.72341 14.76815,26.00988 16.75,29.52539 3.54609,6.29019 3.74662,6.45155 12.60352,10.24804 4.95,2.1218 9.9,4.30331 11,4.84766 6.27092,3.10324 24.52759,10.49734 25.35156,10.2793 l 1.57813,-38.20703 c -0.0246,-1.86278 0.0439,-4.07587 0.21875,-6.22266 0.0641,-0.78687 0.0674,-1.21763 0.11523,-1.86328 l 0.13477,-3.26172 c -0.0268,-1.4094 -0.33328,-2.6792 -0.85547,-3.98437 l -32.00781,-51.33008 c -0.50028,-0.8007 0.29866,-1.78026 1.18359,-1.45117 l 22.66602,8.38281 c 0.96899,0.26253 1.64163,0.37054 1.79882,0.25781 L 748.06641,211.55664 C 747.74101,211.19583 747.36668,210.68514 747,210 c -0.19956,-0.3729 -0.29859,-0.65737 -0.41406,-0.95703 l -1.40039,-2.38086 C 744.84515,206.33449 744.41931,205.78349 744,205 c -0.27593,-0.51561 -0.46083,-0.96859 -0.57031,-1.32422 l -1.24024,-2.10742 c -0.0282,-0.01 -0.0531,0.0159 -0.082,-0.002 z m -42.94726,83.33594 c -0.39272,0.46226 -3.82578,4.88984 -7.62891,9.83984 -3.80313,4.95 -13.91499,16.8122 -22.35742,26.65625 -13.27774,15.48212 -15.27217,18.24951 -14.77539,20.5 1.51128,6.84637 1.79421,15.28118 0.66406,19.77734 -2.62586,10.44673 -11.48806,16.66097 -23.90625,16.76367 l -7.37891,0.0605 -1.99414,5.3457 c -1.09665,2.93962 -1.60905,5.66939 -1.13867,6.06836 0.47038,0.39897 7.38048,2.47339 15.35547,4.60938 7.97499,2.136 28.67502,8.24954 46,13.58594 17.32498,5.3364 31.61959,9.74536 31.76562,9.79687 0.73467,0.25909 21.6805,-44.8387 21.06641,-45.35742 -0.18235,-0.15404 -2.69453,-1.05078 -5.58203,-1.99414 -2.8875,-0.94335 -5.25,-2.3183 -5.25,-3.05469 0,-0.73638 3.11004,-7.56305 6.91016,-15.16992 3.80011,-7.6069 7.19819,-14.82292 7.55273,-16.03711 0.57478,-1.9684 -0.19988,-2.59502 -7.1582,-5.78125 L 723.5,326.9375 l -4.9082,-9.21875 c -10.57102,-19.85422 -18.75046,-33.61821 -19.43164,-32.8164 z M 696.5,295 c 0.825,0 1.5,0.675 1.5,1.5 0,0.825 -0.675,1.5 -1.5,1.5 -0.825,0 -1.5,-0.675 -1.5,-1.5 0,-0.825 0.675,-1.5 1.5,-1.5 z m -7,9 c 0.825,0 1.5,0.675 1.5,1.5 0,0.825 -0.675,1.5 -1.5,1.5 -0.825,0 -1.5,-0.675 -1.5,-1.5 0,-0.825 0.675,-1.5 1.5,-1.5 z m -6,7 c 0.825,0 1.5,0.675 1.5,1.5 0,0.825 -0.675,1.5 -1.5,1.5 -0.825,0 -1.5,-0.675 -1.5,-1.5 0,-0.825 0.675,-1.5 1.5,-1.5 z m -6,7 c 0.825,0 1.5,0.675 1.5,1.5 0,0.825 -0.675,1.5 -1.5,1.5 -0.825,0 -1.5,-0.675 -1.5,-1.5 0,-0.825 0.675,-1.5 1.5,-1.5 z m -6,7 c 0.825,0 1.5,0.675 1.5,1.5 0,0.825 -0.675,1.5 -1.5,1.5 -0.825,0 -1.5,-0.675 -1.5,-1.5 0,-0.825 0.675,-1.5 1.5,-1.5 z m -38.49805,0.19336 c -6.79603,-0.47599 -13.19977,3.3343 -17.20117,10.32031 C 613.69978,339.18179 612.5,340.7741 612.5,349 c 0,14.13412 3.70819,21.81348 12,24.84961 1.65,0.60416 5.79584,0.97593 9.21289,0.82812 5.17759,-0.22396 6.84386,-0.77071 10,-3.2832 2.08295,-1.65816 4.80853,-5.013 6.05664,-7.45508 1.94422,-3.80404 2.22114,-5.65714 1.92969,-12.93945 -0.37237,-9.30432 -2.19048,-14.07366 -7.79688,-20.45898 -2.91909,-3.32466 -6.82277,-5.06207 -10.90039,-5.34766 z M 665.5,331 c 0.825,0 1.5,0.675 1.5,1.5 0,0.825 -0.675,1.5 -1.5,1.5 -0.825,0 -1.5,-0.675 -1.5,-1.5 0,-0.825 0.675,-1.5 1.5,-1.5 z m -31.6543,0.99414 c 1.87856,0.2076 3.86661,0.83888 5.95118,1.90234 7.94574,4.05362 11.7372,18.42719 7.00195,26.54688 -1.26512,2.16936 -3.64913,4.72418 -5.29883,5.67578 -15.3141,8.83368 -29.17802,-7.3819 -21.11523,-24.69726 3.18994,-6.85066 7.82527,-10.05054 13.46093,-9.42774 z m 0.0312,1.60547 c -2.66751,-0.0597 -5.50795,0.5831 -7.05664,1.59766 -4.03807,2.64538 -7.28198,10.29296 -7.20508,16.98437 0.0745,6.48595 1.8593,9.91815 6.68946,12.86328 4.28739,2.61419 9.60882,2.4889 13.7832,-0.32422 4.38466,-2.95481 5.88128,-6.05854 5.89258,-12.2207 0.0126,-6.86468 -1.59111,-12.03218 -4.87109,-15.70312 -2.26959,-2.5401 -3.57014,-3.11527 -7.23243,-3.19727 z M 740.95117,335 c -0.34875,0 -1.19369,1.9125 -1.87695,4.25 -0.68326,2.3375 -3.90441,9.34903 -7.1582,15.58203 -3.2538,6.233 -5.91602,11.72283 -5.91602,12.19922 0,0.47639 2.475,1.64606 5.5,2.59961 3.025,0.95355 5.5,2.09479 5.5,2.53516 0,1.05818 -10.82935,25.15953 -16.50977,36.74414 -2.46974,5.03678 -4.49023,9.30253 -4.49023,9.47851 0,0.17598 3.37451,1.32216 7.5,2.54688 l 7.50195,2.22656 18.49024,19.18555 c 10.16999,10.55156 19.21595,20.21803 20.10156,21.48242 0.88561,1.26439 1.80399,2.10618 2.04102,1.86914 0.23704,-0.23703 5.28044,-8.93038 11.20703,-19.31641 5.92658,-10.38602 14.42135,-24.80533 18.87695,-32.04297 l 8.10156,-13.1582 -7.70898,-12.8418 c -4.23959,-7.06235 -11.12766,-18.20101 -15.30664,-24.7539 l -7.59766,-11.91406 -18.81055,-8.33594 C 750.05056,338.75134 741.29992,335 740.95117,335 Z M 658.5,338 c 0.825,0 1.5,0.675 1.5,1.5 0,0.825 -0.675,1.5 -1.5,1.5 -0.825,0 -1.5,-0.675 -1.5,-1.5 0,-0.825 0.675,-1.5 1.5,-1.5 z m 83.5,1 c 0.55,0 1,0.45 1,1 0,0.55 -0.45,1 -1,1 -0.55,0 -1,-0.45 -1,-1 0,-0.55 0.45,-1 1,-1 z m -184,7.72656 -6.29492,0.50586 c -8.30305,0.66649 -10.61029,1.99337 -22.3125,12.8418 -16.94337,15.7072 -25.78548,21.35067 -37.39258,23.86328 -6.87445,1.48813 -14,4.00082 -14,4.9375 0,1.19075 12.13044,7.78796 18.51953,10.07227 3.31068,1.18366 8.26068,2.52652 11,2.98437 12.72453,2.12681 25.93037,0.54612 34.76758,-4.16406 3.52567,-1.87916 8.34515,-5.81421 12.12109,-9.89258 5.34813,-5.77647 6.5902,-7.85095 8.45508,-14.13281 4.22148,-14.22007 4.09668,-23.52759 -0.34375,-25.55078 -1.65226,-0.75286 -2.65289,-0.78302 -3.08008,-0.0918 -0.34803,0.56318 -0.31058,6.62182 0.084,13.46289 0.4268,7.39964 0.34456,12.4375 -0.20117,12.4375 -0.50454,0 -2.67403,-1.8 -4.82227,-4 -2.14824,-2.2 -4.26475,-4 -4.70312,-4 -0.43838,0 -0.79688,2.25 -0.79688,5 0,2.75 -0.45,5 -1,5 -0.55,0 -1.01254,-0.3375 -1.02734,-0.75 -0.0148,-0.4125 -1.28749,-2.26949 -2.82813,-4.12695 -2.55853,-3.08469 -3.0105,-3.27003 -5.22265,-2.13086 -1.33207,0.68596 -3.94104,2.65545 -5.79883,4.37695 -1.85778,1.72151 -3.20778,2.61865 -3,1.99219 0.66281,-1.99835 8.99503,-8.36133 10.94922,-8.36133 1.03527,0 2.61859,1.125 3.51953,2.5 2.33847,3.56897 3.4082,3.09822 3.4082,-1.5 0,-2.2 0.36258,-4 0.80469,-4 0.44211,0 2.32953,1.575 4.19531,3.5 1.86578,1.925 3.7532,3.5 4.19531,3.5 C 557.63742,371 558,365.53857 558,358.86328 Z M 738,347 c 0.55,0 1,0.45 1,1 0,0.55 -0.45,1 -1,1 -0.55,0 -1,-0.45 -1,-1 0,-0.55 0.45,-1 1,-1 z m -161.52344,7 c -0.72712,0 -1.86217,1.6875 -2.52344,3.75 -0.66125,2.0625 -3.48675,8.22927 -6.27734,13.70508 -5.84885,11.47683 -15.67003,22.6779 -24.1289,27.51758 -15.85827,9.07318 -39.93416,7.4577 -59.92969,-4.02149 C 479.8319,392.77808 476.39093,391 475.9707,391 474.75704,391 469,397.93153 469,399.39258 c 0,2.92178 27.27554,27.0472 44.03711,38.95117 3.55407,2.52409 7.27647,4.60475 8.27148,4.62305 1.52046,0.028 26.09728,-7.40559 54.125,-16.3711 6.83772,-2.18724 6.95975,-2.28639 8.67383,-7.15625 2.7182,-7.72264 2.55295,-8.45458 -1.60742,-7.17773 -1.92453,0.59066 -3.77306,0.79726 -4.10938,0.46094 -0.49889,-0.4989 5.69689,-21.48765 13.17969,-44.65039 C 593.4418,362.27916 593.40166,362 590.72266,362 c -1.2523,0 -4.6717,-1.8 -7.59961,-4 -2.92793,-2.2 -5.91937,-4 -6.64649,-4 z m 31.625,0.20703 c -0.3625,0.16144 -3.23992,1.39048 -6.39453,2.73242 l -5.73633,2.43946 -2.04687,7.06054 c -2.18823,7.54129 -12.54567,40.41206 -13.59571,43.14844 -0.54477,1.41966 -0.0731,1.5448 3.52149,0.9375 4.95127,-0.83651 5.14093,-0.15331 2.15039,7.71484 -1.09972,2.8934 -1.99972,5.37227 -2,5.50977 -9.8e-4,0.48761 1.60669,0.0335 10.91797,-3.08984 l 9.41797,-3.16016 8.7539,-20.25977 8.75196,-20.25976 -3.39649,-2.58985 c -3.7028,-2.82426 -7.94948,-10.68673 -9.01172,-16.68359 -0.36958,-2.08643 -0.96952,-3.66143 -1.33203,-3.5 z M 735,356 c 0.55,0 1,0.45 1,1 0,0.55 -0.45,1 -1,1 -0.55,0 -1,-0.45 -1,-1 0,-0.55 0.45,-1 1,-1 z m -137,4 c 0.55,0 1,0.45 1,1 0,0.55 -0.45,1 -1,1 -0.55,0 -1,-0.45 -1,-1 0,-0.55 0.45,-1 1,-1 z m 133,4 c 0.55,0 1,0.45 1,1 0,0.55 -0.45,1 -1,1 -0.55,0 -1,-0.45 -1,-1 0,-0.55 0.45,-1 1,-1 z m -135,4 c 0.55,0 1,0.45 1,1 0,0.55 -0.45,1 -1,1 -0.55,0 -1,-0.45 -1,-1 0,-0.55 0.45,-1 1,-1 z m 144,3 c 0.55,0 1,0.45 1,1 0,0.55 -0.45,1 -1,1 -0.55,0 -1,-0.45 -1,-1 0,-0.55 0.45,-1 1,-1 z m -147,8 c 0.55,0 1,0.45 1,1 0,0.55 -0.45,1 -1,1 -0.55,0 -1,-0.45 -1,-1 0,-0.55 0.45,-1 1,-1 z m 144,1 c 0.55,0 1,0.45 1,1 0,0.55 -0.45,1 -1,1 -0.55,0 -1,-0.45 -1,-1 0,-0.55 0.45,-1 1,-1 z m -147,11 c 0.55,0 1,0.45 1,1 0,0.55 -0.45,1 -1,1 -0.55,0 -1,-0.45 -1,-1 0,-0.55 0.45,-1 1,-1 z m 142,0 c 0.55,0 1,0.45 1,1 0,0.55 -0.45,1 -1,1 -0.55,0 -1,-0.45 -1,-1 0,-0.55 0.45,-1 1,-1 z m -113.3125,2.31836 c -0.65331,0.2668 -3.78542,6.28456 -6.96094,13.37109 l -5.77344,12.88282 -12.95703,4.27734 c -7.12576,2.35175 -13.15531,4.59955 -13.40039,4.99609 -0.24507,0.39653 3.00717,3.5214 7.22852,6.94336 4.22134,3.42197 11.50078,9.78645 16.17578,14.14258 l 8.5,7.91992 -8.97852,9.07422 L 593.54102,476 h 29.10742 29.10742 l 4.93945,-8.25 4.93946,-8.25 4.52148,0.0527 4.51953,0.0527 3.91211,-7.04688 c 2.15141,-3.87568 4.05178,-7.3559 4.22266,-7.73437 0.17089,-0.37847 -1.1758,-0.83103 -2.99219,-1.00586 -4.73415,-0.45569 -4.61861,-2.54748 0.58398,-10.66406 7.19494,-11.22483 10.7458,-18.80302 9.31446,-19.87696 -1.30402,-0.97842 -6.29062,-2.5555 -42.5293,-13.4414 -12.82168,-3.85157 -23.84669,-6.78438 -24.5,-6.51758 z M 587,398 c 0.55,0 1,0.45 1,1 0,0.55 -0.45,1 -1,1 -0.55,0 -1,-0.45 -1,-1 0,-0.55 0.45,-1 1,-1 z m 141,2 c 0.55,0 1,0.45 1,1 0,0.55 -0.45,1 -1,1 -0.55,0 -1,-0.45 -1,-1 0,-0.55 0.45,-1 1,-1 z m -143,6 c 0.55,0 1,0.45 1,1 0,0.55 -0.45,1 -1,1 -0.55,0 -1,-0.45 -1,-1 0,-0.55 0.45,-1 1,-1 z m 139,2 c 0.55,0 1,0.45 1,1 0,0.55 -0.45,1 -1,1 -0.55,0 -1,-0.45 -1,-1 0,-0.55 0.45,-1 1,-1 z m -133,3 c 0.55,0 1,0.45 1,1 0,0.55 -0.45,1 -1,1 -0.55,0 -1,-0.45 -1,-1 0,-0.55 0.45,-1 1,-1 z m 129,4 c 0.55,0 1,0.45 1,1 0,0.55 -0.45,1 -1,1 -0.55,0 -1,-0.45 -1,-1 0,-0.55 0.45,-1 1,-1 z m -29.91016,0.47266 c -1.31328,0.41682 -3.46111,3.25714 -5.55859,7.35351 -1.87967,3.671 -5.23694,9.37064 -7.46094,12.66602 -4.33131,6.41785 -4.12815,7.26111 1.78711,7.4375 2.77882,0.0829 2.62644,0.69893 -2.38086,9.66797 -4.25936,7.62937 -5.6591,8.81504 -9.49023,8.04882 -2.67331,-0.53467 -3.34947,-0.12994 -6.08789,3.62696 -1.69462,2.32489 -3.9489,5.91406 -5.00977,7.97656 l -1.92969,3.75 h 23.09375 23.09375 l 9.14454,-8.25 C 721.69136,456.56259 740,438.77561 740,437.91602 c 0,-0.3845 -2.05174,-3.14111 -4.56055,-6.125 l -4.5625,-5.42383 -19.32422,-5.78711 c -12.3451,-3.69696 -20.09587,-5.5413 -21.46289,-5.10742 z M 589,418 c 0.55,0 1,0.45 1,1 0,0.55 -0.45,1 -1,1 -0.55,0 -1,-0.45 -1,-1 0,-0.55 0.45,-1 1,-1 z m 99,2 c 0.55,0 1,0.45 1,1 0,0.55 -0.45,1 -1,1 -0.55,0 -1,-0.45 -1,-1 0,-0.55 0.45,-1 1,-1 z m 59.15039,1.70703 6.42383,6.36719 c 3.80775,3.7739 6.40956,7.1941 6.38476,8.39648 -0.0231,1.11589 -0.83258,3.51222 -1.79882,5.32422 l -1.75782,3.29492 -6.20117,-6.45898 C 746.79048,435.07896 744,431.51441 744,430.70898 c 0,-0.80543 0.70807,-3.16138 1.57422,-5.23437 z M 684,428 c 0.55,0 1,0.45 1,1 0,0.55 -0.45,1 -1,1 -0.55,0 -1,-0.45 -1,-1 0,-0.55 0.45,-1 1,-1 z m -4,7 c 0.55,0 1,0.45 1,1 0,0.55 -0.45,1 -1,1 -0.55,0 -1,-0.45 -1,-1 0,-0.55 0.45,-1 1,-1 z m 83.36523,2.97461 c 1.1965,0.40695 3.33348,2.19449 6.63477,5.52539 l 6.375,6.43164 -2.38867,5.09961 c -1.31379,2.805 -2.64124,5.25497 -2.94922,5.44531 -0.53852,0.33282 -9.88863,-9.68012 -11.39649,-12.20508 -0.86925,-1.4556 1.18403,-8.88066 2.83399,-10.25 0.19855,-0.16478 0.49179,-0.18252 0.89062,-0.0469 z M 677,439 c 0.55,0 1,0.45 1,1 0,0.55 -0.45,1 -1,1 -0.55,0 -1,-0.45 -1,-1 0,-0.55 0.45,-1 1,-1 z m 7,4 c 0.55,0 1,0.45 1,1 0,0.55 -0.45,1 -1,1 -0.55,0 -1,-0.45 -1,-1 0,-0.55 0.45,-1 1,-1 z m -2,6 c 0.55,0 1,0.45 1,1 0,0.55 -0.45,1 -1,1 -0.55,0 -1,-0.45 -1,-1 0,-0.55 0.45,-1 1,-1 z m -3,5 c 0.55,0 1,0.45 1,1 0,0.55 -0.45,1 -1,1 -0.55,0 -1,-0.45 -1,-1 0,-0.55 0.45,-1 1,-1 z m -3,5 c 0.55,0 1,0.45 1,1 0,0.55 -0.45,1 -1,1 -0.55,0 -1,-0.45 -1,-1 0,-0.55 0.45,-1 1,-1 z m -6,4 c 0.55,0 1,0.45 1,1 0,0.55 -0.45,1 -1,1 -0.55,0 -1,-0.45 -1,-1 0,-0.55 0.45,-1 1,-1 z m -6,1 c 0.55,0 1,0.45 1,1 0,0.55 -0.45,1 -1,1 -0.55,0 -1,-0.45 -1,-1 0,-0.55 0.45,-1 1,-1 z m -3,5 c 0.55,0 1,0.45 1,1 0,0.55 -0.45,1 -1,1 -0.55,0 -1,-0.45 -1,-1 0,-0.55 0.45,-1 1,-1 z m -3,4 c 0.55,0 1,0.45 1,1 0,0.55 -0.45,1 -1,1 -0.55,0 -1,-0.45 -1,-1 0,-0.55 0.45,-1 1,-1 z"
       sodipodi:nodetypes="ssssssssssssscssssssssssssssssssssssssssssccssssssccscccssscccsssssssssssssccccssssssssssssccccccssssssssssccsssssssssssssssssssssssssssssscccsscccsssssssssscccsssssccsssssssssssssssssssssssssscccssssssssssssssssscccssccscccscccsssssssscccssssssssccssssssssssssssssssssssssssccccccccccssscccssssscccsssssssssccsccccccccsccsccssssssccssssssssssccsssssssssssssssssssssssssssssssssssssssssssssssssssssssssssssssscccsssccscccsssssssscssccsssssssssssssssssssssssssssscssssssscssssssssssssssscscsssscccccsssssssssssssssssssssssssssssssssssssssssssscssscscsscccccccccccsssssssssssssssssssssssssssssssssssssssssssccccssccssssssssssssccssccsccsssssssscssccssssssssssssssssssssssssssssssssssssssssssssssssssssss" />
    <path
       style="fill:#cccccc"
       d="M 602.52085,466.91903 611.5,457.83805 604,450.8277 c -4.125,-3.8557 -13.1611,-11.31186 -18.01672,-15.37877 -10.24361,-8.5797 -11.35925,-5.0689 8.71857,-12.23036 l 11.15353,-3.97831 5.83303,-13.1644 c 3.11709,-7.03487 6.6775,-13.03484 6.99534,-13.35269 0.48885,-0.48884 23.53189,6.4094 31.38119,9.17435 1.375,0.48434 9.6698,2.71262 18.1948,5.26918 8.525,2.55657 16.02657,5.31097 16.98761,5.82327 1.61047,0.85849 1.3468,1.46829 -1.29345,7.10136 -1.57507,3.36046 -5.07094,9.19101 -7.55222,13.06206 -5.2026,8.11659 -5.31694,10.20881 -0.58279,10.6645 1.81639,0.17483 3.1627,0.62754 2.99181,1.00601 -0.17088,0.37847 -2.07095,3.85914 -4.22236,7.73483 l -3.91166,7.0467 -4.52063,-0.0527 -4.52063,-0.0527 -4.93983,8.25 -4.93982,8.25 H 622.64873 593.5417 l 8.97915,-9.08097 z m 53.36736,5.33097 c 1.06087,-2.0625 3.31536,-5.65218 5.00998,-7.97707 2.73843,-3.7569 3.41568,-4.16016 6.08899,-3.62549 3.83114,0.76622 5.23039,-0.42076 9.48976,-8.05014 5.0073,-8.96905 5.15887,-9.58472 2.38005,-9.66759 -5.91527,-0.17639 -6.11797,-1.02025 -1.78665,-7.43811 2.224,-3.29538 5.58155,-8.99514 7.46122,-12.66614 1.95705,-3.82213 4.2698,-6.94503 5.41175,-7.30747 1.16968,-0.37124 8.20932,1.04926 19.55465,4.23899 21.66625,6.09145 21.31944,4.03642 28.88276,15.33926 l 1.97627,2.95339 -10.50966,10.25022 c -5.72574,5.58439 -14.74751,14.15128 -20.12552,18.95895 L 699.94363,476 H 676.95149 653.95935 Z M 659,474 c 0,-0.55 -0.45,-1 -1,-1 -0.55,0 -1,0.45 -1,1 0,0.55 0.45,1 1,1 0.55,0 1,-0.45 1,-1 z m 3,-4 c 0,-0.55 -0.45,-1 -1,-1 -0.55,0 -1,0.45 -1,1 0,0.55 0.45,1 1,1 0.55,0 1,-0.45 1,-1 z m 3,-5 c 0,-0.55 -0.45,-1 -1,-1 -0.55,0 -1,0.45 -1,1 0,0.55 0.45,1 1,1 0.55,0 1,-0.45 1,-1 z m 6,-1 c 0,-0.55 -0.45,-1 -1,-1 -0.55,0 -1,0.45 -1,1 0,0.55 0.45,1 1,1 0.55,0 1,-0.45 1,-1 z m 6,-4 c 0,-0.55 -0.45,-1 -1,-1 -0.55,0 -1,0.45 -1,1 0,0.55 0.45,1 1,1 0.55,0 1,-0.45 1,-1 z m 3,-5 c 0,-0.55 -0.45,-1 -1,-1 -0.55,0 -1,0.45 -1,1 0,0.55 0.45,1 1,1 0.55,0 1,-0.45 1,-1 z m 3,-5 c 0,-0.55 -0.45,-1 -1,-1 -0.55,0 -1,0.45 -1,1 0,0.55 0.45,1 1,1 0.55,0 1,-0.45 1,-1 z m 2,-6 c 0,-0.55 -0.45,-1 -1,-1 -0.55,0 -1,0.45 -1,1 0,0.55 0.45,1 1,1 0.55,0 1,-0.45 1,-1 z m -7,-4 c 0,-0.55 -0.45,-1 -1,-1 -0.55,0 -1,0.45 -1,1 0,0.55 0.45,1 1,1 0.55,0 1,-0.45 1,-1 z m 3,-4 c 0,-0.55 -0.45,-1 -1,-1 -0.55,0 -1,0.45 -1,1 0,0.55 0.45,1 1,1 0.55,0 1,-0.45 1,-1 z m 4,-7 c 0,-0.55 -0.45,-1 -1,-1 -0.55,0 -1,0.45 -1,1 0,0.55 0.45,1 1,1 0.55,0 1,-0.45 1,-1 z m 4,-8 c 0,-0.55 -0.45,-1 -1,-1 -0.55,0 -1,0.45 -1,1 0,0.55 0.45,1 1,1 0.55,0 1,-0.45 1,-1 z m 79.85182,42.13926 c -0.49654,-1.07391 -9.6522,-10.39666 -19.99356,-21.06633 l -18.08058,-18.65461 -7.46026,-2.19078 c -3.91043,-1.14833 -7.04132,-1.90844 -7.70272,-2.59904 -0.39118,-0.40844 3.15488,-6.18607 5.39915,-10.77854 C 726.43676,396.75297 737,373.17387 737,372.16591 c 0,-0.44037 -2.475,-1.58084 -5.5,-2.53439 -3.025,-0.95355 -5.5,-2.12349 -5.5,-2.59988 0,-0.47639 2.6622,-5.9659 5.916,-12.1989 3.2538,-6.23301 6.47502,-13.24524 7.15828,-15.58274 0.68326,-2.3375 1.58974,-4.40418 1.91518,-4.37437 0.32544,0.0298 8.83554,3.68091 19.01054,8.21275 l 19.92857,8.23971 5.28073,8.21583 c 6.80692,10.59029 22.86969,36.38161 24.37573,39.71941 1.10247,2.44336 -0.53609,3.87512 -9.34485,18.1641 -5.22177,8.47043 -13.34736,22.86572 -18.69052,31.61654 -5.33351,8.73501 -9.50578,16.87007 -9.92603,16.87007 -0.42024,0 -2.27526,-1.70087 -2.77181,-2.77478 z m 5.28234,-9.232 2.18498,-4.03144 -6.38068,-6.43791 c -3.50938,-3.54085 -6.95127,-5.01451 -7.31193,-5.01451 -0.36066,0 -0.98579,1.52684 -2.17485,4.29091 -2.45905,5.71622 -0.53794,6.28528 5.46156,12.30606 5.9951,6.01637 3.97548,6.72004 8.22092,-1.11311 z m -15.35228,-14.94677 c 0.83742,-2.81991 0.17189,-3.85147 0.0362,-3.91984 -0.13563,-0.0684 -1.67943,-3.10654 -5.22979,-6.69872 0,0 -5.77224,-5.87948 -6.19997,-5.95456 -0.42774,-0.0751 -1.99904,3.93866 -1.99904,3.93866 -0.90333,2.33405 -0.96593,4.01336 -0.96593,4.46942 0,1.50784 11.13404,13.84971 12.03994,13.28984 0.48828,-0.30178 1.48112,-2.30489 2.31854,-5.1248 z M 721,416 c 0,-0.55 -0.45,-1 -1,-1 -0.55,0 -1,0.45 -1,1 0,0.55 0.45,1 1,1 0.55,0 1,-0.45 1,-1 z m 4,-7 c 0,-0.55 -0.45,-1 -1,-1 -0.55,0 -1,0.45 -1,1 0,0.55 0.45,1 1,1 0.55,0 1,-0.45 1,-1 z m 4,-8 c 0,-0.55 -0.45,-1 -1,-1 -0.55,0 -1,0.45 -1,1 0,0.55 0.45,1 1,1 0.55,0 1,-0.45 1,-1 z m 4,-9 c 0,-0.55 -0.45,-1 -1,-1 -0.55,0 -1,0.45 -1,1 0,0.55 0.45,1 1,1 0.55,0 1,-0.45 1,-1 z m 5,-11 c 0,-0.55 -0.45,-1 -1,-1 -0.55,0 -1,0.45 -1,1 0,0.55 0.45,1 1,1 0.55,0 1,-0.45 1,-1 z m 3,-9 c 0,-0.55 -0.45,-1 -1,-1 -0.55,0 -1,0.45 -1,1 0,0.55 0.45,1 1,1 0.55,0 1,-0.45 1,-1 z m -9,-7 c 0,-0.55 -0.45,-1 -1,-1 -0.55,0 -1,0.45 -1,1 0,0.55 0.45,1 1,1 0.55,0 1,-0.45 1,-1 z m 4,-8 c 0,-0.55 -0.45,-1 -1,-1 -0.55,0 -1,0.45 -1,1 0,0.55 0.45,1 1,1 0.55,0 1,-0.45 1,-1 z m 3,-9 c 0,-0.55 -0.45,-1 -1,-1 -0.55,0 -1,0.45 -1,1 0,0.55 0.45,1 1,1 0.55,0 1,-0.45 1,-1 z m 4,-8 c 0,-0.55 -0.45,-1 -1,-1 -0.55,0 -1,0.45 -1,1 0,0.55 0.45,1 1,1 0.55,0 1,-0.45 1,-1 z m -233.27498,96.30677 c -17.24738,-12.95173 -40.71851,-34.48155 -40.72304,-36.82893 -0.003,-1.3109 5.67809,-8.80596 6.75681,-8.80596 0.44897,0 4.20058,2.04502 7.97407,4.25804 18.06822,10.59637 42.81579,12.18356 57.75208,4.70582 13.15791,-6.58741 24.4902,-21.44399 31.25269,-39.99076 1.21492,-3.33202 2.929,-5.64498 3.41623,-5.64498 1.31686,0 8.07905,3.33353 9.64143,5.21609 0.74678,0.89981 3.63385,2.03023 5.2165,2.44347 3.21192,0.83867 2.46802,0.49891 0.55768,6.4123 -7.48281,23.16277 -13.67816,44.15278 -13.17926,44.65168 0.33632,0.33632 2.18611,0.12824 4.11064,-0.46242 4.1649,-1.27824 4.32503,-0.54936 1.58831,7.22996 l -1.75583,4.99107 -9.50505,2.99573 c -5.16292,1.62721 -18.50909,5.81207 -29.78409,9.3353 -11.275,3.52322 -21.22752,6.20245 -22.06271,6.1969 -0.83518,-0.006 -6.2895,-2.97342 -11.25646,-6.70331 z m 76.33289,-18.21707 c 3.02028,-7.67285 2.72745,-8.39818 -2.20838,-7.56428 -3.59458,0.6073 -4.06623,0.48167 -3.52145,-0.93799 1.12697,-2.93685 11.6341,-38.0565 13.53144,-44.73029 1.8076,-6.35815 1.49101,-5.53069 7.32213,-8.65245 3.27866,-1.75528 5.87744,-2.49391 7.48419,-2.11039 0.88619,0.21153 0.75663,3.3333 1.44697,5.8083 1.66738,5.97791 5.85061,12.14487 8.69343,14.39514 1.21955,0.96535 3.07039,2.36213 3.15156,2.84784 0.10949,0.65519 -4.42894,10.37209 -9.06827,21.05707 l -8.34658,19.38918 -6.58528,2.43264 c -3.70245,1.3677 -8.84819,3.80526 -10.64976,3.49324 l -3.60532,0.55554 z M 590,419 c 0,-0.55 -0.45,-1 -1,-1 -0.55,0 -1,0.45 -1,1 0,0.55 0.45,1 1,1 0.55,0 1,-0.45 1,-1 z m 2,-7 c 0,-0.55 -0.45,-1 -1,-1 -0.55,0 -1,0.45 -1,1 0,0.55 0.45,1 1,1 0.55,0 1,-0.45 1,-1 z m -6,-5 c 0,-0.55 -0.45,-1 -1,-1 -0.55,0 -1,0.45 -1,1 0,0.55 0.45,1 1,1 0.55,0 1,-0.45 1,-1 z m 2,-8 c 0,-0.55 -0.45,-1 -1,-1 -0.55,0 -1,0.45 -1,1 0,0.55 0.45,1 1,1 0.55,0 1,-0.45 1,-1 z m 3,-7 c 0,-0.55 -0.45,-1 -1,-1 -0.55,0 -1,0.45 -1,1 0,0.55 0.45,1 1,1 0.55,0 1,-0.45 1,-1 z m 3,-12 c 0,-0.55 -0.45,-1 -1,-1 -0.55,0 -1,0.45 -1,1 0,0.55 0.45,1 1,1 0.55,0 1,-0.45 1,-1 z m 3,-11 c 0,-0.55 -0.45,-1 -1,-1 -0.55,0 -1,0.45 -1,1 0,0.55 0.45,1 1,1 0.55,0 1,-0.45 1,-1 z m 2,-8 c 0,-0.55 -0.45,-1 -1,-1 -0.55,0 -1,0.45 -1,1 0,0.55 0.45,1 1,1 0.55,0 1,-0.45 1,-1 z m 92.72078,50.45316 c -10.45,-3.26599 -23.64826,-7.14141 -28.59826,-8.68343 -4.95,-1.54202 -16.28685,-4.69663 -25.97866,-7.34696 -16.53377,-4.52135 -18.29749,-5.15201 -17.64551,-7.11565 1.64527,-4.95522 3.57293,-9.92891 4.17862,-9.95399 0.35869,-0.0149 4.97303,-0.26984 8.82303,-0.42634 11.49271,-0.46716 19.77513,-5.69452 22.51225,-15.47055 1.17568,-4.19911 0.55931,-16.68315 -0.78538,-20.95624 -0.49261,-1.5654 2.91579,-6.06141 14.36218,-19.36733 8.04332,-9.35 18.19911,-21.80858 22.56842,-27.46126 4.36931,-5.65268 8.32783,-10.68333 8.79671,-10.39355 0.46887,0.28978 5.88076,9.70852 11.24074,19.47142 5.35999,9.76289 9.91705,18.73411 10.91248,20.41221 1.29964,2.19096 3.9435,3.98877 9.37826,6.37717 6.63867,2.91748 7.62238,3.71671 7.08055,5.57877 -0.33975,1.16755 -3.85678,8.60641 -7.6569,16.21332 C 727.10919,359.93766 724,366.764 724,367.50038 c 0,0.73639 2.3625,2.11072 5.25,3.05407 2.8875,0.94336 5.40651,1.84853 5.59779,2.0115 0.37553,0.31993 -5.69926,13.89544 -14.6255,32.68405 -3.75696,7.90793 -5.57617,12.9522 -6.63281,12.88722 -0.8635,-0.0531 -11.4187,-3.41808 -21.8687,-6.68406 z M 660,339.5 c 0,-0.825 -0.675,-1.5 -1.5,-1.5 -0.825,0 -1.5,0.675 -1.5,1.5 0,0.825 0.675,1.5 1.5,1.5 0.825,0 1.5,-0.675 1.5,-1.5 z m 7,-7 c 0,-0.825 -0.675,-1.5 -1.5,-1.5 -0.825,0 -1.5,0.675 -1.5,1.5 0,0.825 0.675,1.5 1.5,1.5 0.825,0 1.5,-0.675 1.5,-1.5 z m 6,-6 c 0,-0.825 -0.675,-1.5 -1.5,-1.5 -0.825,0 -1.5,0.675 -1.5,1.5 0,0.825 0.675,1.5 1.5,1.5 0.825,0 1.5,-0.675 1.5,-1.5 z m 6,-7 c 0,-0.825 -0.675,-1.5 -1.5,-1.5 -0.825,0 -1.5,0.675 -1.5,1.5 0,0.825 0.675,1.5 1.5,1.5 0.825,0 1.5,-0.675 1.5,-1.5 z m 6,-7 c 0,-0.825 -0.675,-1.5 -1.5,-1.5 -0.825,0 -1.5,0.675 -1.5,1.5 0,0.825 0.675,1.5 1.5,1.5 0.825,0 1.5,-0.675 1.5,-1.5 z m 6,-7 c 0,-0.825 -0.675,-1.5 -1.5,-1.5 -0.825,0 -1.5,0.675 -1.5,1.5 0,0.825 0.675,1.5 1.5,1.5 0.825,0 1.5,-0.675 1.5,-1.5 z m 7,-9 c 0,-0.825 -0.675,-1.5 -1.5,-1.5 -0.825,0 -1.5,0.675 -1.5,1.5 0,0.825 0.675,1.5 1.5,1.5 0.825,0 1.5,-0.675 1.5,-1.5 z M 509.62252,402.55433 c -4.28092,-0.35428 -8.50668,-2.14811 -12.08168,-3.34552 -7.41331,-2.48302 -19.7955,-8.81833 -19.7955,-10.27562 0,-1.29075 4.83178,-3.14285 13.13227,-4.87355 12.04065,-2.51055 20.29095,-7.36573 35.49252,-21.39986 5.5,-5.07761 13.03924,-11.34923 15.00783,-12.6671 4.03893,-2.70383 15.38845,-4.63926 16.90437,-3.12334 0.52936,0.52936 -0.21059,6.95049 -0.23829,13.25887 l -0.41417,11.52454 -5.23701,-4.41137 -3.67857,-2.98278 -0.27504,1.97135 c -0.68041,4.87678 -0.81701,8.72025 -2.43612,5.69491 -0.72589,-1.35633 -3.75473,-3.92893 -4.5879,-4.24865 -2.09428,-0.80365 -9.86991,6.01759 -10.56897,6.99432 -0.25879,0.36159 -0.35571,0.92703 1.11198,-0.39663 8.06625,-7.27464 9.27737,-6.62049 11.62727,-4.09883 1.10791,1.1889 2.75815,3.82298 3.21325,4.63998 0.4551,0.817 0.98085,1.32157 1.346,0.82535 0.36515,-0.49621 0.66899,-1.69261 0.7433,-4.05689 0.0743,-2.36428 0.40416,-6.10574 0.40416,-6.10574 l 1.11552,0.75138 c 3.06337,2.06339 8.79037,7.71756 8.90909,7.34228 0.32867,-1.03896 0.0403,-5.28925 0.0403,-12.71425 0,-7.425 -1.51498,-14.35979 1.48465,-13.85202 2.03953,0.34524 3.30088,2.18699 4.51815,4.498 1.45841,2.76882 0.53108,16.23664 -2.82512,24.33874 -4.26555,10.29736 -13.54997,19.43629 -26.41857,25.1113 -9.27306,2.94724 -22.21286,1.95541 -26.49378,1.60113 z M 463.27233,380.2069 c -14.02103,-1.29707 -20.22747,-6.14305 -27.11348,-13.04905 -6.88601,-6.90601 -7.14483,-12.30596 -2.11695,-18.49114 5.02787,-6.18517 9.82438,-15.89122 9.2432,-17.35432 -0.29564,-0.74427 -4.21548,-3.24044 -9.1597,-5.65927 -4.94422,-2.41882 -7.97708,-5.13477 -7.74985,-5.362 0.22723,-0.22724 8.00735,-3.16161 16.72796,-5.2862 21.40727,-5.21542 36.58104,-10.23161 53.59812,-18.66781 13.12601,-6.50721 14.72032,-6.97199 19.29631,-6.5323 3.68792,0.35437 5.0295,0.74343 7.92747,2.62813 4.85026,3.15438 12.8782,6.00469 20.50678,5.31852 3.16528,-0.28471 8.40511,-1.69032 13.95746,-4.35528 4.88931,-2.34673 10.76452,-5.5141 12.82886,-4.79513 2.95811,1.03025 -0.14622,2.32402 -4.71845,-0.64212 -4.2987,-2.78869 2.04222,-4.17686 11.49994,-5.84617 5.8216,-1.02753 11.83276,-2.97095 13.46168,-3.7946 1.62893,-0.82365 9.27221,-7.22987 16.98507,-14.87097 7.71286,-7.6411 14.66095,-13.83272 15.44019,-13.67979 0.77924,0.15293 4.46407,3.98283 8.18852,10.01882 4.51626,7.31924 7.54658,12.5291 9.09813,12.99682 1.27953,0.38572 9.36413,1.33211 17.88201,2.76245 l 15.5556,2.06114 7.37246,-5.17064 C 686.01492,269.60868 689.64227,268 689.99201,268 c 0.34974,0 3.28275,3.87423 4.46245,5.70396 1.1797,1.82973 3.8901,5.82957 4.22541,7.13061 0.33531,1.30104 -14.4345,17.34287 -14.4345,17.34287 -26.16777,31.44026 -31.18397,37.01737 -31.53422,37.01737 -0.19427,0 -1.80777,-1.00115 -3.02998,-2.97874 -7.22294,-11.68695 -22.41486,-13.72751 -32.68518,-3.91267 -4.75146,4.54072 -6.64862,8.38324 -7.50673,16.56182 l -0.98926,6.36523 -9.96029,3.99625 c 0,0 -8.3234,3.48579 -9.6356,2.95729 -1.3122,-0.5285 -5.27382,-4.11825 -5.27382,-4.11825 -8.93166,-8.35452 -21.99964,-12.94573 -32.32534,-11.73214 -9.80914,1.15287 -15.09608,3.41346 -30.32994,18.05036 -9.42617,9.05678 -15.84372,14.38322 -19.46322,16.15408 -8.36521,4.09271 -20.33779,5.40784 -38.23946,3.66886 z m 176.04341,-49.08471 c -426.21049,-220.74813 -213.10525,-110.37406 0,0 z"
       id="path906"
       sodipodi:nodetypes="ccssscsssssssssscccccccccsssssssssscsscccssssssssssssssssssssssssssssssssssssssssssssssssssssssssssssssscsssssssssscssssssscsssssssszssssssssssssssssssssssssssssssssssssssssssssssssssssssssssssssssssscsscssssssssssscsscssssssssssssssssssssssssssssssssssssssssssssssssssssssssssssssssssssssssssssssssssssssssssssssssssscsssssscccssssssszzzsssssssczcczzsssssssssssssssscsszzssssscccszssscccc" />
    <path
       style="fill:#000000;stroke:none;stroke-opacity:1;fill-opacity:0"
       d="m 600.80711,469.25 c 2.75275,-3.1625 6.3855,-7.06041 8.07277,-8.66201 l 3.06777,-2.91202 -8.43761,-7.89429 c -4.64068,-4.34187 -11.83559,-10.65228 -15.98867,-14.02314 -4.15308,-3.37087 -7.20688,-6.45993 -6.78622,-6.86459 0.42067,-0.40467 6.39438,-2.56 13.27491,-4.78962 l 12.51006,-4.05388 5.9829,-13.5155 c 4.43696,-10.02318 6.37232,-13.39566 7.48994,-13.05171 7.59,2.33584 59.3115,17.95538 62.00704,18.72571 1.925,0.55013 3.64196,1.13263 3.81548,1.29445 0.54264,0.50608 -5.69918,12.2947 -10.35893,19.56439 -2.4511,3.82397 -4.45655,7.53306 -4.45655,8.24244 0,1.98236 2.15512,3.68977 4.65727,3.68977 2.1799,0 2.12344,0.23069 -1.64677,6.72951 -3.78175,6.51871 -4.01692,6.71979 -7.5073,6.41907 -4.57125,-0.39383 -5.50394,0.42696 -10.72207,9.43576 l -4.28113,7.39113 -27.84894,0.0123 -27.84895,0.0123 5.005,-5.75 z m 55.2082,5.15504 c -0.008,-0.60223 1.75926,-3.84057 3.92817,-7.1963 3.74534,-5.79477 4.10963,-6.07454 7.25,-5.56792 4.06213,0.65532 6.03376,-1.24203 11.28807,-10.86277 C 682.36207,443.67275 682.36558,442 678.5,442 c -1.31008,0 -2.64893,-0.43195 -2.97521,-0.95989 -0.92146,-1.49095 5.74452,-11.00181 7.72521,-11.02214 0.9625,-0.01 1.75,-0.46797 1.75,-1.01797 0,-0.55 -0.44272,-1 -0.98382,-1 -0.5411,0 -0.25134,-1.53603 0.64391,-3.41339 1.0057,-2.10898 2.14596,-3.21453 2.98382,-2.89301 C 688.38976,421.97981 689,421.71583 689,421.10699 689,420.49814 688.56412,420 688.03138,420 c -1.44474,0 -0.25693,-2.37805 1.8428,-3.68935 1.485,-0.9274 5.53983,-0.0278 21.23069,4.71045 19.39093,5.85551 19.39605,5.85782 23.62456,10.66784 2.32619,2.64608 4.23869,5.26809 4.25,5.82669 0.0245,1.21025 -20.32101,21.37251 -31.09248,30.81243 L 700.2739,475 h -20.55362 c -15.50572,0 -20.67818,-0.307 -21.06082,-1.25 -0.38169,-0.94068 -0.76971,-0.87881 -1.56802,0.25 -0.58345,0.825 -1.06771,1.00727 -1.07613,0.40504 z M 662,470 c 0,-0.55 -0.45,-1 -1,-1 -0.55,0 -1,0.45 -1,1 0,0.55 0.45,1 1,1 0.55,0 1,-0.45 1,-1 z m 3,-5 c 0,-0.55 -0.45,-1 -1,-1 -0.55,0 -1,0.45 -1,1 0,0.55 0.45,1 1,1 0.55,0 1,-0.45 1,-1 z m 6,-1 c 0,-0.55 -0.45,-1 -1,-1 -0.55,0 -1,0.45 -1,1 0,0.55 0.45,1 1,1 0.55,0 1,-0.45 1,-1 z m 6,-4 c 0,-0.55 -0.45,-1 -1,-1 -0.55,0 -1,0.45 -1,1 0,0.55 0.45,1 1,1 0.55,0 1,-0.45 1,-1 z m 3,-5 c 0,-0.55 -0.45,-1 -1,-1 -0.55,0 -1,0.45 -1,1 0,0.55 0.45,1 1,1 0.55,0 1,-0.45 1,-1 z m 3,-5 c 0,-0.55 -0.45,-1 -1,-1 -0.55,0 -1,0.45 -1,1 0,0.55 0.45,1 1,1 0.55,0 1,-0.45 1,-1 z m 2,-6 c 0,-0.55 -0.45,-1 -1,-1 -0.55,0 -1,0.45 -1,1 0,0.55 0.45,1 1,1 0.55,0 1,-0.45 1,-1 z m -7,-4 c 0,-0.55 -0.45,-1 -1,-1 -0.55,0 -1,0.45 -1,1 0,0.55 0.45,1 1,1 0.55,0 1,-0.45 1,-1 z m 3,-4 c 0,-0.55 -0.45,-1 -1,-1 -0.55,0 -1,0.45 -1,1 0,0.55 0.45,1 1,1 0.55,0 1,-0.45 1,-1 z m -170.56787,0.21838 c -4.96697,-3.72989 -11.70864,-8.95189 -14.98149,-11.60445 C 488.39919,418.89892 469,400.18122 469,399.0925 c 0,-0.4176 1.47502,-2.46563 3.27782,-4.55116 l 3.27782,-3.79188 8.47218,4.54769 c 11.29872,6.06492 19.70604,8.6948 30.03231,9.39437 26.7579,1.81276 45.33005,-11.53936 57.99087,-41.69152 1.73208,-4.125 3.51367,-7.88699 3.95909,-8.35998 0.82655,-0.87769 6.65749,3.38927 10.53026,6.12624 0.92479,0.65357 2.53264,1.58439 3.62414,1.58439 1.27122,0 1.86019,1.14266 1.52283,2.02179 -0.28966,0.75484 -1.51057,4.69234 -2.71313,8.75 -1.20256,4.05766 -4.39896,14.33881 -7.10311,22.84701 -2.70415,8.5082 -4.67663,16.09489 -4.3833,16.85931 0.39058,1.01784 1.50323,1.20791 4.15681,0.71009 3.22763,-0.6055 3.5468,-0.48089 2.9217,1.14069 -0.38596,1.00125 -1.20449,3.69515 -1.81896,5.98644 l -1.07301,3.72405 -9.60925,3.13779 c -5.19576,1.69661 -18.56507,5.5692 -29.56507,9.08107 -11,3.51187 -20.68333,6.38654 -21.51852,6.38816 -0.83518,0.002 -5.58239,-3.04878 -10.54935,-6.77867 z m 76.7807,-18.59965 c 2.59463,-7.04346 1.95441,-9.06029 -2.60456,-8.20502 l -3.3706,0.63233 5.71519,-17.77302 c 3.14336,-9.77516 6.52193,-20.77451 7.50793,-24.44299 1.28921,-4.79661 2.17842,-6.52197 3.16597,-6.14301 0.75528,0.28982 1.37324,0.0288 1.37324,-0.58003 0,-0.60885 -0.5625,-1.13291 -1.25,-1.1646 -1.3368,-0.0616 8.91208,-4.94239 10.37824,-4.94239 0.47947,0 0.87176,0.81984 0.87176,1.82186 0,4.32905 3.00265,11.87541 7.33288,16.04843 l 4.79435,4.62029 -8.63866,20.00778 -8.63865,20.00778 -8.17496,2.4223 c -4.49623,1.33226 -8.69771,2.60127 -9.33663,2.82002 -0.7202,0.24658 -0.38787,-1.70285 0.8745,-5.12973 z M 590,419 c 0,-0.55 -0.45,-1 -1,-1 -0.55,0 -1,0.45 -1,1 0,0.55 0.45,1 1,1 0.55,0 1,-0.45 1,-1 z m 2,-7 c 0,-0.55 -0.45,-1 -1,-1 -0.55,0 -1,0.45 -1,1 0,0.55 0.45,1 1,1 0.55,0 1,-0.45 1,-1 z m -6,-5 c 0,-0.55 -0.45,-1 -1,-1 -0.55,0 -1,0.45 -1,1 0,0.55 0.45,1 1,1 0.55,0 1,-0.45 1,-1 z m 2,-8 c 0,-0.55 -0.45,-1 -1,-1 -0.55,0 -1,0.45 -1,1 0,0.55 0.45,1 1,1 0.55,0 1,-0.45 1,-1 z m 3,-7 c 0,-0.55 -0.45,-1 -1,-1 -0.55,0 -1,0.45 -1,1 0,0.55 0.45,1 1,1 0.55,0 1,-0.45 1,-1 z m 3,-12 c 0,-0.55 -0.45,-1 -1,-1 -0.55,0 -1,0.45 -1,1 0,0.55 0.45,1 1,1 0.55,0 1,-0.45 1,-1 z m 3,-11 c 0,-0.55 -0.45,-1 -1,-1 -0.55,0 -1,0.45 -1,1 0,0.55 0.45,1 1,1 0.55,0 1,-0.45 1,-1 z m -89,32.31341 c -8.23908,-1.36512 -29,-10.27535 -29,-12.44629 0,-0.9349 5.58432,-2.74651 13.70093,-4.44473 6.20964,-1.29922 16.88691,-6.37982 22.21416,-10.57024 1.35418,-1.0652 6.90937,-6.08019 12.34487,-11.14444 5.4355,-5.06424 11.53813,-9.98341 13.56139,-10.93149 5.55081,-2.60104 15.42089,-2.19331 16.52449,0.68264 0.2663,0.69397 0.23303,4.92607 -0.0739,9.40465 l -0.55812,8.14288 -4.33698,-3.55383 -4.33697,-3.55382 -0.67193,4.202 -0.67193,4.20201 -1.93139,-2.65137 C 543.70231,367.19312 541.95701,366 540.88614,366 c -1.11436,0 -6.61226,4.49698 -12.85542,10.51502 -6.32072,6.09281 -12.72148,11.32013 -15.21954,12.42937 -2.37115,1.05288 -3.73075,1.94612 -3.02134,1.98497 2.70876,0.14835 9.73437,-4.34642 16.09418,-10.29655 C 533.62693,373.38867 539.24651,369 540.77954,369 c 0.59991,0 2.35744,1.79039 3.90561,3.97865 1.54817,2.18826 3.15235,3.98826 3.56485,4 0.4125,0.0117 0.75,-2.22865 0.75,-4.97865 0,-2.75 0.32204,-5 0.71565,-5 0.39361,0 2.86861,2.12058 5.5,4.71241 L 560,376.42482 v -10.77143 c 0,-11.62555 1.07986,-13.12407 3.06504,-4.25335 1.0673,4.76919 0.95986,6.15934 -0.96615,12.5003 -1.85746,6.11527 -3.11942,8.14398 -8.83456,14.20234 -7.2106,7.64361 -12.76593,11.01237 -21.06355,12.77294 -5.04851,1.07118 -18.86908,1.3212 -24.20078,0.43779 z m -40.75046,-21.34307 c -10.28989,-0.60973 -11.89472,-0.98506 -18.79616,-4.39593 -5.93078,-2.93115 -8.50439,-4.94331 -12.02524,-9.40185 -6.39536,-8.0986 -6.43822,-8.88408 -0.9641,-17.66695 2.57292,-4.12809 4.7802,-7.50561 4.90507,-7.50561 0.12486,0 3.80539,1.74404 8.17896,3.87564 12.62782,6.1546 18.29934,7.49739 31.95193,7.56497 12.6608,0.0627 15.17191,-0.46949 26.14254,-5.54006 5.28044,-2.4406 7.42566,-4.36444 15.28497,-13.7076 5.02834,-5.9777 10.5892,-11.94978 12.35746,-13.27129 5.1951,-3.88255 11.43051,-6.92166 14.20134,-6.92166 1.41786,0 4.19343,-0.675 6.16793,-1.5 5.41357,-2.26193 6.14419,-1.82215 2.50097,1.50542 -3.89104,3.55391 -3.73062,3.63948 8.19193,4.36934 4.86593,0.29788 9.36593,0.95845 10,1.46794 0.63407,0.5095 2.72786,1.24435 4.65286,1.633 4.98177,1.00582 11.031,3.07715 20.90538,7.15826 10.88899,4.50045 11.26267,4.80817 9.94968,8.1935 -0.5701,1.4699 -1.5749,5.54443 -2.23289,9.05451 l -1.19634,6.38197 -7.46291,2.71798 c -4.10461,1.49489 -8.20973,3.04303 -9.1225,3.44032 -1.18157,0.51428 -3.26201,-0.72881 -7.22285,-4.31577 -9.61134,-8.70408 -20.26926,-12.68632 -31.7539,-11.8646 -10.41341,0.74507 -15.28159,3.70778 -31.78944,19.34664 -14.9147,14.12955 -20.62039,17.8923 -28.56737,18.83939 -9.0365,1.07693 -13.53828,1.1776 -24.25732,0.54244 z"
       id="path908"
       sodipodi:nodetypes="sscsssscssssssssssccccscssssssssssssssssscssscssssssssssssssssssssssssssssssssssssssssssssssssscssssssssssssscsscssscsssssssscccsssssssssssssssssssssssssssssssssssssssssssssscccccsssssssssssscssssssssssssssssssssssssscsssssss" />
  </g>
</svg>
